<?xml version="1.0" encoding="UTF-8" standalone="no"?>
<svg width="429px" height="279px" viewBox="0 0 429 279" version="1.1" xmlns="http://www.w3.org/2000/svg" xmlns:xlink="http://www.w3.org/1999/xlink" xmlns:sketch="http://www.bohemiancoding.com/sketch/ns">
    <!-- Generator: Sketch 3.4.4 (17249) - http://www.bohemiancoding.com/sketch -->
    <title>BALZ_LOGO_BLACK_01</title>
    <desc>Created with Sketch.</desc>
    <defs>
        <path id="path-1" d="M0.06,0.552 L428.134,0.552 L428.134,279 L0.06,279 L0.06,0.552 Z"></path>
    </defs>
    <g id="Page-1" stroke="none" stroke-width="1" fill="none" fill-rule="evenodd" sketch:type="MSPage">
        <g id="BALZ_LOGO_BLACK_01" sketch:type="MSLayerGroup">
            <g id="Group-4">
                <mask id="mask-2" sketch:name="Clip 2" fill="white">
                    <use xlink:href="#path-1"></use>
                </mask>
                <use id="Clip-2" fill="#D8D8D8" sketch:type="MSShapeGroup" xlink:href="#path-1"></use>
                <path d="M1.5,2.053 L426.634,2.053 L426.634,277.5 L1.5,277.5 L1.5,2.053 Z" id="Fill-1" fill="#FFFFFF" sketch:type="MSShapeGroup" mask="url(#mask-2)"></path>
                <path d="M0,279 L428.134,279 L428.134,0.553 L0,0.553 L0,279 Z M3,3.553 L425.134,3.553 L425.134,276 L3,276 L3,3.553 Z" id="Fill-3" fill="#000000" sketch:type="MSShapeGroup" mask="url(#mask-2)"></path>
            </g>
            <path d="M83.804,201.613 C95.895,197.316 103.906,185.856 103.905,172.573 C103.227,155.943 90.192,142.414 74.845,142.414 L21.383,142.414 L21.383,257.678 L72.435,257.678 C80.048,257.678 86.982,254.336 91.961,248.27 C96.493,242.748 99.092,235.35 99.092,227.974 C99.092,216.703 93.143,206.537 83.804,201.613 M94.571,227.974 C94.571,242.032 85.048,252.859 72.435,253.16 L25.902,253.16 L25.902,202.787 L71.472,202.787 C82.628,202.787 94.571,212.908 94.571,227.974 M25.902,198.269 L25.902,146.931 L74.845,146.931 C86.454,146.931 99.388,157.472 99.388,172.599 C99.388,186.514 88.662,198.269 75.966,198.269 L25.902,198.269" id="Fill-5" fill="#1A1919" sketch:type="MSShapeGroup"></path>
            <path d="M99.093,51.578 C99.093,44.202 96.494,36.805 91.962,31.282 C86.983,25.216 80.049,21.874 72.436,21.874 L21.383,21.874 L21.383,137.139 L74.846,137.139 C90.191,137.139 103.227,123.61 103.905,106.98 C103.906,93.696 95.895,82.236 83.805,77.939 C93.144,73.015 99.093,62.85 99.093,51.578 M71.473,76.765 L25.902,76.765 L25.902,26.392 L72.436,26.392 C85.049,26.694 94.572,37.521 94.572,51.578 C94.572,66.644 82.628,76.765 71.473,76.765 M75.967,81.283 C88.663,81.283 99.389,93.039 99.389,106.953 C99.389,122.08 86.454,132.621 74.846,132.621 L25.902,132.621 L25.902,81.283 L75.967,81.283" id="Fill-6" fill="#1A1919" sketch:type="MSShapeGroup"></path>
            <path d="M206.638,142.413 L188.822,183.18 L130.133,183.18 L112.315,142.413 L107.359,142.413 L157.684,257.677 L161.434,257.677 L211.596,142.413 L206.638,142.413 L206.638,142.413 Z M159.555,250.727 L131.991,187.7 L186.812,187.7 L159.555,250.727 L159.555,250.727 Z" id="Fill-7" fill="#1A1919" sketch:type="MSShapeGroup"></path>
            <path d="M224.062,142.413 L224.062,257.677 L228.583,257.677 L228.583,146.93 L300.167,146.93 L300.167,142.413 L224.062,142.413" id="Fill-8" fill="#1A1919" sketch:type="MSShapeGroup"></path>
            <path d="M320.474,146.931 L406.107,146.931 L406.107,142.413 L314.434,142.413 L314.434,146.508 L400.712,253.159 L315.237,253.159 L315.237,257.678 L406.749,257.678 L406.749,253.582 L320.474,146.931" id="Fill-9" fill="#1A1919" sketch:type="MSShapeGroup"></path>
            <path d="M228.583,132.622 L228.583,21.875 L224.063,21.875 L224.063,137.139 L300.167,137.139 L300.167,132.622 L228.583,132.622" id="Fill-10" fill="#1A1919" sketch:type="MSShapeGroup"></path>
            <path d="M315.238,21.874 L315.238,26.392 L400.711,26.392 L314.581,132.864 L314.435,133.045 L314.435,137.139 L406.108,137.139 L406.108,132.621 L320.474,132.621 L406.604,26.15 L406.75,25.969 L406.75,21.874 L315.238,21.874" id="Fill-11" fill="#1A1919" sketch:type="MSShapeGroup"></path>
            <path d="M161.265,22.393 L157.094,22.444 L106.931,136.866 L111.932,136.866 L130.816,93.792 L210.218,136.833 L213.383,133.85 L161.265,22.393 L161.265,22.393 Z M132.661,89.582 L159.258,28.913 L206.291,129.496 L132.661,89.582 L132.661,89.582 Z" id="Fill-12" fill="#1A1919" sketch:type="MSShapeGroup"></path>
        </g>
    </g>
</svg>