<?xml version="1.0" encoding="UTF-8" standalone="no"?>
<svg width="400px" height="260px" viewBox="0 0 400 260" version="1.1" xmlns="http://www.w3.org/2000/svg" xmlns:xlink="http://www.w3.org/1999/xlink">
    <!-- Generator: Sketch 3.7 (28169) - http://www.bohemiancoding.com/sketch -->
    <title>BALZ_LOGO_BLACK_01 Copy</title>
    <desc>Created with Sketch.</desc>
    <defs>
        <polygon id="path-1" points="0.0559440559 0.514026899 399.192541 0.514026899 399.192541 259.807074 0.0559440559 259.807074"></polygon>
    </defs>
    <g id="signature" stroke="none" stroke-width="1" fill="none" fill-rule="evenodd">
        <g id="Desktop-HD" transform="translate(-48.000000, -669.000000)">
            <g id="BALZ_LOGO_BLACK_01-Copy" transform="translate(48.000000, 669.000000)">
                <g id="Group-4">
                    <mask id="mask-2" fill="white">
                        <use xlink:href="#path-1"></use>
                    </mask>
                    <g id="Clip-2"></g>
                    <polygon id="Fill-1" mask="url(#mask-2)" points="1.3986014 1.91177033 397.793939 1.91177033 397.793939 258.410262 1.3986014 258.410262"></polygon>
                    <path d="M0,259.807074 L399.192541,259.807074 L399.192541,0.514958107 L0,0.514958107 L0,259.807074 Z M2.7972028,3.30858256 L396.395338,3.30858256 L396.395338,257.01345 L2.7972028,257.01345 L2.7972028,3.30858256 Z" id="Fill-3" fill="#FFFFFF" mask="url(#mask-2)"></path>
                </g>
                <path d="M78.1389277,187.743669 C89.4125874,183.742267 96.8820513,173.070622 96.8811189,160.701384 C96.248951,145.215393 84.0951049,132.617078 69.7855478,132.617078 L19.9375291,132.617078 L19.9375291,239.951854 L67.5384615,239.951854 C74.6368298,239.951854 81.1020979,236.839756 85.7445221,231.191047 C89.9701632,226.048916 92.3934732,219.159838 92.3934732,212.291247 C92.3934732,201.7956 86.84662,192.328938 78.1389277,187.743669 M88.1780886,212.291247 C88.1780886,225.382171 79.2988345,235.464362 67.5384615,235.744655 L24.151049,235.744655 L24.151049,188.836907 L66.6405594,188.836907 C77.0424242,188.836907 88.1780886,198.261665 88.1780886,212.291247 M24.151049,184.629709 L24.151049,136.823345 L69.7855478,136.823345 C80.6097902,136.823345 92.6694639,146.63921 92.6694639,160.725596 C92.6694639,173.683357 82.6685315,184.629709 70.8307692,184.629709 L24.151049,184.629709" id="Fill-5" fill="#FFFFFF"></path>
                <path d="M92.3944056,48.029854 C92.3944056,41.1612627 89.9710956,34.273116 85.7454545,29.1300534 C81.1030303,23.4813447 74.6377622,20.3692471 67.5393939,20.3692471 L19.9375291,20.3692471 L19.9375291,127.704955 L69.7864802,127.704955 C84.0941725,127.704955 96.248951,115.106639 96.8811189,99.6206479 C96.8820513,87.2504789 89.4125874,76.5788335 78.1398601,72.577432 C86.8475524,67.9921631 92.3944056,58.5264323 92.3944056,48.029854 M66.6414918,71.4841937 L24.151049,71.4841937 L24.151049,24.5764455 L67.5393939,24.5764455 C79.2997669,24.8576704 88.179021,34.939861 88.179021,48.029854 C88.179021,62.059436 77.0424242,71.4841937 66.6414918,71.4841937 M70.8317016,75.6913921 C82.6694639,75.6913921 92.6703963,86.6386751 92.6703963,99.5955053 C92.6703963,113.681891 80.6097902,123.497756 69.7864802,123.497756 L24.151049,123.497756 L24.151049,75.6913921 L70.8317016,75.6913921" id="Fill-6" fill="#FFFFFF"></path>
                <path d="M192.669464,132.616146 L176.057809,170.578709 L121.336131,170.578709 L104.722611,132.616146 L100.101632,132.616146 L147.024709,239.950923 L150.521212,239.950923 L197.292308,132.616146 L192.669464,132.616146 L192.669464,132.616146 Z M148.769231,233.479026 L123.068531,174.78777 L174.183683,174.78777 L148.769231,233.479026 L148.769231,233.479026 Z" id="Fill-7" fill="#FFFFFF"></path>
                <polyline id="Fill-8" fill="#FFFFFF" points="208.915618 132.616146 208.915618 239.950923 213.131002 239.950923 213.131002 136.822414 279.875991 136.822414 279.875991 132.616146 208.915618 132.616146"></polyline>
                <polyline id="Fill-9" fill="#FFFFFF" points="298.810256 136.823345 378.654545 136.823345 378.654545 132.616146 293.178555 132.616146 293.178555 136.429444 373.624242 235.743724 293.927273 235.743724 293.927273 239.951854 379.253147 239.951854 379.253147 236.137625 298.810256 136.823345"></polyline>
                <polyline id="Fill-10" fill="#FFFFFF" points="213.131002 123.498687 213.131002 20.3701783 208.91655 20.3701783 208.91655 127.704955 279.875991 127.704955 279.875991 123.498687 213.131002 123.498687"></polyline>
                <polyline id="Fill-11" fill="#FFFFFF" points="293.928205 20.3692471 293.928205 24.5764455 373.62331 24.5764455 293.315618 123.72404 293.179487 123.892588 293.179487 127.704955 378.655478 127.704955 378.655478 123.497756 298.810256 123.497756 379.117949 24.3510931 379.254079 24.1825445 379.254079 20.3692471 293.928205 20.3692471"></polyline>
                <path d="M150.363636,20.8525441 L146.474592,20.9000357 L99.7025641,127.450735 L104.365501,127.450735 L121.97296,87.3398748 L196.007459,127.420005 L198.958508,124.642211 L150.363636,20.8525441 L150.363636,20.8525441 Z M123.69324,83.4194885 L148.492308,26.9240213 L192.345921,120.587731 L123.69324,83.4194885 L123.69324,83.4194885 Z" id="Fill-12" fill="#FFFFFF"></path>
            </g>
        </g>
    </g>
</svg>